<?xml version="1.0" encoding="UTF-8"?>
<svg id="Capa_1" data-name="Capa 1" xmlns="http://www.w3.org/2000/svg" viewBox="0 0 3000 1500">
  <defs>
    <style>
      .cls-1 {
        fill: none;
        stroke: #fff;
        stroke-miterlimit: 10;
        stroke-width: 5px;
      }

      .cls-2 {
        fill: #fff;
      }

      .cls-2, .cls-3 {
        stroke-width: 0px;
      }

      .cls-3 {
        fill: #2034a8;
      }
    </style>
  </defs>
  <path class="cls-3" d="m0,1500C0,671.57,671.57,0,1500,0s1500,671.57,1500,1500H0Z"/>
  <g>
    <g>
      <g>
        <path class="cls-3" d="m1708.56,597.56c-42.72-.13-77.65,34.91-77.59,77.82.06,42.11,33.95,76.63,76.09,77.52,42.51.9,78.07-34.01,78.37-76.92.3-43.19-34.1-78.28-76.87-78.42Z"/>
        <path class="cls-1" d="m1708.56,597.56c-42.72-.13-77.65,34.91-77.59,77.82.06,42.11,33.95,76.63,76.09,77.52,42.51.9,78.07-34.01,78.37-76.92.3-43.19-34.1-78.28-76.87-78.42Z"/>
      </g>
      <g>
        <path class="cls-3" d="m1902.91,662.23c-10.61-48.2-33.73-92.79-60.39-134.32-33.69-52.48-73.41-101.08-118.13-144.55-3.88-3.77-8.48-7.76-13.87-7.39-3.79.26-7.05,2.66-10.05,5-103.43,80.58-229.61,237.83-180.74,377.83,25,71.63,90.51,121.04,161.24,136.68,10.24,2.26,20.55,3.61,30.83,4.06,2.09.09,4.19.15,6.28.17,49.29.47,97.4-19.27,132.97-54.88,47.03-47.08,66.1-117.92,51.87-182.6Zm-26.17,2.77c-.35,7.28-.35,14.61-.01,21.89.59,12.54-4.26,18.36-17.61,19.94-21.47,2.53-35.04,35.17-21.76,52.54,8.8,11.51,7.08,19.71-2.78,28.08-9.56,8.1-15.83,20.31-29.33,23.85-2.35-.96-5.27-1.25-6.7-2.87-13.51-15.31-27.94-9.72-42.93-2.76-8.98,4.17-15.56,9.54-15.73,20.15-.23,14.25-8.35,19-21.41,18.47-7.89-.32-15.81-.05-23.72-.11-9.75-.07-15.5-4.11-17.68-14.46-5.78-27.46-33.18-38.9-55.68-23.29-7.88,5.46-14.4,5.61-21.13-.82-5.72-5.45-11.02-11.38-16.93-16.61-10.63-9.4-13.82-17.81-3.3-30.81,12.69-15.68-2.01-49.19-22.19-51.3-14.54-1.52-18.83-8.34-18.17-21.38.4-7.89.21-15.82.06-23.72-.21-10.94,4.51-16.26,15.85-17.94,24.06-3.58,37.05-34.56,22.54-54.18-7.53-10.19-5.92-17.5,2.4-25.3,4.88-4.57,9.73-9.23,14.13-14.25,9.43-10.77,18-13.77,30.74-2.95,13.65,11.6,48.44-1.14,50.24-18.8,2.09-20.52,13.12-23.55,29.68-22.09,5.43.48,10.94.12,16.42.1,10.85-.04,16.2,5.05,18.17,16.07,4.38,24.53,34.45,37.4,53.75,22.78,10.04-7.61,17.32-6.46,25.2,2.03,4.55,4.9,9.25,9.7,14.26,14.12,10.6,9.35,13.98,17.84,3.41,30.85-12.7,15.64,1.95,49.27,22.16,51.34,14.69,1.51,18.69,8.53,18.07,21.44Z"/>
        <path class="cls-1" d="m1902.91,662.23c-10.61-48.2-33.73-92.79-60.39-134.32-33.69-52.48-73.41-101.08-118.13-144.55-3.88-3.77-8.48-7.76-13.87-7.39-3.79.26-7.05,2.66-10.05,5-103.43,80.58-229.61,237.83-180.74,377.83,25,71.63,90.51,121.04,161.24,136.68,10.24,2.26,20.55,3.61,30.83,4.06,2.09.09,4.19.15,6.28.17,49.29.47,97.4-19.27,132.97-54.88,47.03-47.08,66.1-117.92,51.87-182.6Zm-26.17,2.77c-.35,7.28-.35,14.61-.01,21.89.59,12.54-4.26,18.36-17.61,19.94-21.47,2.53-35.04,35.17-21.76,52.54,8.8,11.51,7.08,19.71-2.78,28.08-9.56,8.1-15.83,20.31-29.33,23.85-2.35-.96-5.27-1.25-6.7-2.87-13.51-15.31-27.94-9.72-42.93-2.76-8.98,4.17-15.56,9.54-15.73,20.15-.23,14.25-8.35,19-21.41,18.47-7.89-.32-15.81-.05-23.72-.11-9.75-.07-15.5-4.11-17.68-14.46-5.78-27.46-33.18-38.9-55.68-23.29-7.88,5.46-14.4,5.61-21.13-.82-5.72-5.45-11.02-11.38-16.93-16.61-10.63-9.4-13.82-17.81-3.3-30.81,12.69-15.68-2.01-49.19-22.19-51.3-14.54-1.52-18.83-8.34-18.17-21.38.4-7.89.21-15.82.06-23.72-.21-10.94,4.51-16.26,15.85-17.94,24.06-3.58,37.05-34.56,22.54-54.18-7.53-10.19-5.92-17.5,2.4-25.3,4.88-4.57,9.73-9.23,14.13-14.25,9.43-10.77,18-13.77,30.74-2.95,13.65,11.6,48.44-1.14,50.24-18.8,2.09-20.52,13.12-23.55,29.68-22.09,5.43.48,10.94.12,16.42.1,10.85-.04,16.2,5.05,18.17,16.07,4.38,24.53,34.45,37.4,53.75,22.78,10.04-7.61,17.32-6.46,25.2,2.03,4.55,4.9,9.25,9.7,14.26,14.12,10.6,9.35,13.98,17.84,3.41,30.85-12.7,15.64,1.95,49.27,22.16,51.34,14.69,1.51,18.69,8.53,18.07,21.44Z"/>
      </g>
    </g>
    <path class="cls-2" d="m713.44,896.59c0-176.26,1.31-352.54-.88-528.78-.58-46.72,10.86-66.42,61.61-64.31,90.49,3.76,181.27,2.16,271.89.54,37.29-.67,50.41,14.2,50.34,50.59-.67,362.6-.66,725.19-.02,1087.79.06,35.78-11.8,51.9-49.69,51.24-93.98-1.63-188.03-1.94-282,.13-40.17.88-52.19-14.58-51.89-53.32,1.43-181.29.63-362.59.63-543.89Zm183.2-110.6c43.4,0,86.8.25,130.19-.16,12.86-.12,29.85,1.75,30.38-16.99.53-18.79-16.3-18.48-29.35-18.54-83.46-.39-166.91-.35-250.37-.19-13.86.03-29.27,2.35-28.01,20.18.99,13.89,14.65,15.73,26.98,15.69,40.06-.11,80.12-.04,120.18,0Zm9.17-148.12c-43.44,0-86.87.06-130.31-.04-12.62-.03-25.55,2.7-25.67,17.05-.12,15.44,14.54,16.39,26.13,16.43,85.2.29,170.4.28,255.59-.09,11.47-.05,26-.77,25.62-16.72-.36-15.27-13.98-16.51-26.08-16.55-41.76-.13-83.53-.05-125.29-.09Zm-1.97,170.49c-41.72,0-83.44-.12-125.16.07-13.31.06-29.86-.52-28.53,18.32,1.07,15.12,16.66,14.03,28,14.07,83.44.29,166.87.4,250.31-.06,12.28-.07,30.16,2.49,28.23-17.97-1.43-15.15-16.1-14.31-27.7-14.36-41.72-.18-83.44-.07-125.16-.07Zm-2.98-80.53c43.42,0,86.85.09,130.27-.06,11.9-.04,26.11-.54,26.48-15.86.39-16.11-14.46-15.86-25.97-15.89-85.17-.25-170.35-.19-255.52-.13-12.06,0-26.72,1.34-26.87,15.72-.15,14.16,14,16.26,26.35,16.25,41.75-.02,83.51,0,125.26-.03Zm153.05-288.68c.09-2.37.18-4.74.26-7.1h-300.7c-.09,2.37-.17,4.74-.26,7.1h300.7Zm-.37-45.97c-.23-2.82-.47-5.64-.7-8.45h-298.95c.09,2.82.19,5.64.28,8.45h299.37Zm-148.67,817.88c-21.97,1.37-35.64,14.26-36.12,34.36-.49,20.12,12.47,34.93,34.24,35.45,21.71.51,34.79-12.29,35.24-33.8.45-21.4-11.99-33.6-33.36-36.01Z"/>
    <path class="cls-2" d="m1707.47,304.56c159.38,0,318.77-.07,478.16.04,59.69.04,68.8,7.55,68.97,64.93.61,213.1-.18,426.2.67,639.29.17,43.01-18.41,60.53-60.64,60.2-117.45-.89-234.91-.38-352.36-.15-24.23.05-50.39-6.89-50.63,34.85-.2,35.96,11.48,48.55,46.1,44.24,13.05-1.63,26.73-.78,38.83,7.14,13.32,8.72,25.79,20.4,23.1,36.01-3.22,18.62-21.88,10.69-33.57,10.77-104.03.7-208.06.78-312.09-.05-13.2-.11-34.85,9.31-38.04-11.44-3.07-20.02,13.68-33.6,32.3-39.53,10.86-3.46,23.39-4.22,34.79-2.92,31.16,3.55,40.32-9.75,40.55-40.01.24-31.68-12.19-39.89-41.73-39.6-117.44,1.16-234.92-.77-352.35,1-46.65.7-66.62-15.35-66.26-64.17,1.55-213.09,1.69-426.2-.11-639.28-.42-49.71,19.47-62.8,66.18-62.16,159.36,2.17,318.76.83,478.15.83Zm-2.27,29.47c-154.31,0-308.64,1.24-462.92-.84-40.16-.54-52.15,12.47-51.79,51.78,1.62,179.46,1.42,358.95.13,538.42-.26,36.21,10.5,50.57,48.57,50.43,311.99-1.09,623.98-1.03,935.97-.04,37.13.12,49.8-12.66,49.51-49.79-1.36-179.47-1.51-358.96.1-538.42.35-39.09-11.15-52.88-51.63-52.35-155.96,2.02-311.95.82-467.94.82Z"/>
    <path class="cls-2" d="m1708.19,1473.84c-179.47,0-358.95-1.28-538.4.88-45.72.55-46.27-11.9-27.5-46.8,27.74-51.56,52.44-104.81,76.88-158.05,9.46-20.61,21.14-29.76,45.2-29.75,295.18.17,590.36-.44,885.53-2.04,26.5-.14,38.56,10.79,48.75,32.93,25.22,54.78,50.92,109.46,79.48,162.54,18.56,34.51,9.26,41.11-26.52,40.86-181.14-1.26-362.29-.58-543.43-.58Zm-6.43-20.34c169.38,0,338.77-.65,508.14.56,33.23.24,43.26-5.88,25.52-38.29-20.87-38.12-40.9-77.04-56.99-117.33-11.92-29.85-29.45-37.86-60.52-37.68-233.11,1.33-466.23.55-699.34.86-53.5.07-119.09-16.86-157.19,7.85-40.04,25.97-52.69,93.11-79.33,141.14-18.42,33.21-14.98,44.16,26.68,43.65,164.33-2.02,328.69-.83,493.04-.75Z"/>
    <path class="cls-2" d="m1394.69,1430.25h556.11c0,3.09.02,6.18.03,9.27h-556.8c.22-3.09.44-6.18.66-9.27Z"/>
  </g>
</svg>